<?xml version="1.0" standalone="no"?>
<!DOCTYPE svg PUBLIC "-//W3C//DTD SVG 20010904//EN"
 "http://www.w3.org/TR/2001/REC-SVG-20010904/DTD/svg10.dtd">
<svg version="1.0" xmlns="http://www.w3.org/2000/svg"
 width="500.000000pt" height="500.000000pt" viewBox="0 0 500.000000 500.000000"
 preserveAspectRatio="xMidYMid meet">

<g transform="translate(0.000000,500.000000) scale(0.100000,-0.100000)"
fill="#000000" stroke="none">
<path d="M3856 2819 c-59 -46 -153 -224 -212 -402 -39 -116 -83 -180 -145
-213 -40 -20 -49 -18 -49 14 0 16 -6 37 -14 47 -13 18 -14 18 -25 -3 -14 -26
-14 -57 0 -84 8 -15 5 -38 -15 -101 -29 -94 -69 -160 -94 -155 -27 6 -19 88
21 209 29 91 42 116 85 165 138 157 222 302 222 383 0 26 -5 52 -12 59 -49 49
-139 -57 -244 -285 -78 -170 -98 -204 -138 -234 -21 -15 -43 -26 -49 -22 -13
8 -1 56 28 116 29 56 23 69 -30 65 -25 -3 -31 -9 -44 -52 -12 -38 -27 -58 -69
-93 -30 -24 -56 -42 -59 -40 -10 11 30 123 57 160 33 45 38 78 15 97 -25 21
-54 0 -122 -91 -36 -49 -68 -89 -69 -89 -2 0 0 17 3 38 6 40 27 87 50 114 21
23 9 48 -22 48 -29 0 -38 -16 -76 -137 -13 -40 -35 -81 -53 -100 -52 -56 -54
-43 -15 77 16 47 16 57 4 69 -22 23 -47 4 -114 -86 -57 -77 -95 -112 -109 -99
-7 7 32 105 64 163 29 51 30 70 4 78 -31 10 -53 -9 -90 -82 -39 -76 -137 -203
-157 -203 -20 0 -16 23 23 121 37 97 41 145 12 163 -27 17 -83 -33 -145 -130
-7 -10 0 16 14 59 l27 78 -21 20 c-13 14 -27 19 -40 15 -25 -8 -78 -81 -126
-176 -30 -59 -37 -68 -32 -40 3 19 14 51 24 71 18 33 18 39 5 58 -8 11 -20 21
-25 21 -12 0 -59 -97 -59 -122 0 -19 -95 -138 -110 -138 -18 0 -10 48 20 123
70 174 9 227 -96 85 -45 -61 -49 -56 -18 21 25 61 10 108 -33 99 -24 -4 -86
-89 -125 -170 -18 -37 -36 -68 -40 -68 -10 0 17 87 33 106 9 12 9 20 -1 39
-19 36 -34 31 -56 -17 -20 -47 -31 -58 -55 -58 -14 0 -15 5 -2 53 16 62 11 91
-24 123 -36 33 -75 31 -106 -6 -14 -16 -28 -39 -32 -49 -3 -11 -14 -23 -25
-26 -61 -19 -137 -140 -126 -200 8 -40 45 -82 80 -91 51 -12 123 38 183 127
14 21 35 39 49 42 23 4 24 2 24 -49 0 -47 3 -56 27 -71 22 -15 27 -15 31 -3
27 79 146 280 159 267 2 -3 -7 -30 -21 -61 -34 -76 -43 -147 -22 -165 20 -17
32 -8 57 41 19 36 99 146 99 136 0 -3 -11 -32 -25 -66 -42 -104 -30 -200 27
-215 18 -5 33 4 71 44 44 46 50 49 65 36 9 -9 22 -17 29 -19 7 -2 32 39 57 90
50 101 104 187 114 178 3 -3 -6 -34 -21 -68 -35 -87 -40 -132 -17 -153 20 -18
18 -20 80 75 16 25 41 59 55 75 l25 30 -26 -60 c-34 -77 -39 -172 -10 -204 34
-37 70 -28 116 30 28 36 40 45 40 32 0 -11 6 -27 13 -37 25 -35 86 0 161 94
15 19 25 30 22 23 -15 -28 -9 -86 9 -99 30 -22 52 -17 95 23 31 27 44 33 52
25 24 -24 46 -11 82 46 39 62 105 144 72 89 -9 -15 -21 -52 -27 -83 -12 -63 2
-96 47 -116 22 -10 29 -8 64 27 l39 38 26 -32 c36 -42 74 -42 109 0 14 17 26
29 26 26 0 -2 -9 -39 -20 -82 -32 -127 -25 -198 24 -230 55 -36 107 26 145
175 18 70 21 76 52 84 18 6 52 29 77 52 24 23 41 35 38 27 -15 -37 -28 -155
-22 -188 9 -46 46 -85 81 -85 36 0 115 76 176 169 47 72 55 75 49 18 -2 -27
24 -62 58 -76 45 -19 79 4 169 116 l78 97 8 -78 c7 -69 5 -80 -13 -106 -11
-16 -30 -32 -41 -35 -11 -4 -18 -12 -16 -18 7 -23 35 -18 62 11 l27 29 37 -20
37 -20 45 30 c56 39 75 60 138 152 55 80 59 91 36 91 -8 0 -15 -3 -15 -8 0
-17 -100 -143 -145 -182 -52 -45 -75 -42 -75 10 0 35 93 168 126 180 23 9 34
30 15 30 -23 0 -63 -31 -101 -78 -22 -29 -42 -52 -44 -52 -2 0 -2 36 1 80 l6
80 -25 0 c-20 0 -42 -21 -107 -104 -91 -117 -142 -166 -171 -166 -22 0 -24 10
-14 84 6 41 11 50 43 66 98 52 150 143 105 181 -9 7 -34 14 -55 14 -52 0 -85
-34 -153 -155 -66 -116 -173 -268 -198 -281 -14 -7 -24 -7 -35 2 -12 11 -14
27 -9 84 13 130 33 179 134 329 105 155 152 246 160 311 4 37 1 47 -21 69 -32
31 -37 32 -71 5z m47 -71 c-9 -48 -57 -150 -114 -245 -28 -45 -52 -83 -54 -83
-12 0 91 265 126 324 27 47 51 49 42 4z m-308 -80 c-17 -79 -97 -221 -174
-308 l-31 -35 34 80 c70 167 142 295 167 295 7 0 8 -12 4 -32z m-2081 -204 c7
-19 -22 -151 -35 -160 -6 -3 -21 -3 -35 0 -20 5 -24 13 -24 41 0 40 16 81 44
113 23 26 41 28 50 6z m2559 -69 c-2 -26 -66 -105 -85 -105 -9 0 17 63 45 106
26 39 43 39 40 -1z m-2642 -104 l39 -18 -29 -40 c-38 -52 -80 -85 -105 -81
-29 4 -25 59 10 133 22 46 29 54 37 40 5 -9 27 -25 48 -34z m2466 -93 c-3 -7
-5 -2 -5 12 0 14 2 19 5 13 2 -7 2 -19 0 -25z"/>
<path d="M1143 2785 c-39 -17 -100 -86 -172 -195 -122 -186 -183 -422 -131
-507 30 -50 96 -93 141 -93 79 0 225 176 217 261 l-3 32 -53 -71 c-64 -87
-123 -139 -175 -154 -37 -11 -41 -10 -59 12 -27 33 -19 101 29 240 77 226 193
409 269 422 34 6 28 -43 -15 -126 -45 -85 -38 -98 31 -51 65 44 75 141 23 204
-29 34 -62 42 -102 26z m-136 -264 c-23 -44 -43 -78 -45 -76 -4 3 43 99 66
133 30 46 21 19 -21 -57z"/>
<path d="M3229 2573 c-4 -57 -9 -77 -23 -98 -19 -29 -21 -55 -3 -55 17 1 61
39 53 47 -3 3 6 21 19 39 21 27 24 38 15 54 -10 19 -59 29 -61 13z"/>
</g>
</svg>
